<svg xmlns="http://www.w3.org/2000/svg" viewBox="0 0 300 100" width="300" height="100">
    <rect width="300" height="100" rx="12" fill="#111111"/>
    <path d="M55 42 c-2 -4 -6 -6 -10 -5 c-6 1 -11 6 -11 14 c0 11 8 20 12 20 c3 0 5 -2 8 -2 c3 0 5 2 8 2 c5 0 10 -7 12 -12 c-5 -2 -7 -8 -6 -12 c1 -5 5 -8 7 -9 c-4 -5 -10 -6 -10 -6 z M52 35 c2 -3 3 -6 2 -9 c-3 0 -6 2 -8 4 c-2 2 -3 6 -2 9 c3 0 6 -1 8 -4 z" fill="#ffffff" transform="scale(1.3) translate(-10, -5)"/>
    <text x="175" y="62" font-family="Arial, sans-serif" font-weight="bold" font-size="32" fill="#ffffff" text-anchor="middle">Apple</text>
  </svg>